<svg xmlns="http://www.w3.org/2000/svg" width="28.427" height="28.427" viewBox="0 0 28.427 28.427">
  <path id="Icon_metro-cross" data-name="Icon metro-cross" d="M30.739,24.766h0l-8.624-8.624,8.624-8.624h0a.89.89,0,0,0,0-1.256L26.665,2.188a.891.891,0,0,0-1.256,0h0l-8.624,8.624L8.16,2.188h0a.891.891,0,0,0-1.256,0L2.83,6.261a.89.89,0,0,0,0,1.256h0l8.624,8.624L2.83,24.766h0a.89.89,0,0,0,0,1.256L6.9,30.1a.89.89,0,0,0,1.256,0h0l8.624-8.624L25.408,30.1h0a.89.89,0,0,0,1.256,0l4.074-4.074a.89.89,0,0,0,0-1.256Z" transform="translate(-2.571 -1.928)" fill="red"/>
</svg>
